PathFileType	4	(X/Y/Z)	Patient4_TMGait_0pt2_01_right_06.trc.trc
DataRate	CameraRate	NumFrames	NumMarkers	Units	OrigDataRate	OrigDataStartFrame	OrigNumFrames
40.816326530612	40.816326530612	5	33	mm	40.816326530612	106	       141
Frame#	Time	Sacral			L.Shoulder			Chest			R.Shoulder			Neck			R.ASIS			L.ASIS			R.Thigh.Superior			R.Thigh.Lateral			R.Thigh.Inferior			R.Patella			L.Thigh.Superior			L.Thigh.Lateral			L.Thigh.Inferior			L.Patella			L.Shank.Superior			L.Shank.Lateral			L.Shank.Inferior			R.Shank.Superior			R.Shank.Lateral			R.Shank.Inferior			R.Heel			R.Midfoot.Superior			R.Midfoot.Lateral			R.Toe			L.Heel			L.Midfoot.Lateral			L.Midfoot.Superior			L.Toe			L.Elbow			L.Wrist			R.Elbow			R.Wrist			
		X1	Y1	Z1	X2	Y2	Z2	X3	Y3	Z3	X4	Y4	Z4	X5	Y5	Z5	X6	Y6	Z6	X7	Y7	Z7	X8	Y8	Z8	X9	Y9	Z9	X10	Y10	Z10	X11	Y11	Z11	X12	Y12	Z12	X13	Y13	Z13	X14	Y14	Z14	X15	Y15	Z15	X16	Y16	Z16	X17	Y17	Z17	X18	Y18	Z18	X19	Y19	Z19	X20	Y20	Z20	X21	Y21	Z21	X22	Y22	Z22	X23	Y23	Z23	X24	Y24	Z24	X25	Y25	Z25	X26	Y26	Z26	X27	Y27	Z27	X28	Y28	Z28	X29	Y29	Z29	X30	Y30	Z30	X31	Y31	Z31	X32	Y32	Z32	X33	Y33	Z33	

106	14.022500000000	794.131216455432	995.608706301109	409.708893562834	975.840463836909	1430.351263419851	245.788843466149	1067.117578893524	1360.492953448508	412.946005779003	970.699547398559	1426.879504591413	581.808955795143	944.234213042923	1488.976037994722	403.267753615796	1019.186591496786	933.891348260830	539.436893566250	1022.087393442547	960.198009029657	265.460388399569	1086.170975899409	745.051962735635	506.970289095533	1026.230255813319	628.007763922862	572.453864090404	1108.881421419394	578.084714389967	491.828542388435	1111.279638490844	465.617819242142	515.340491508444	1075.915758612524	747.614068728041	309.107820751859	996.767007861653	621.538070732040	252.423099121794	1076.078374311548	552.229417673911	329.215300566908	1077.147188118195	480.215509699725	342.021585187482	1042.596618526726	406.239061283297	335.775723937768	948.465597678941	296.851304427845	282.531925089290	979.829440810471	186.650404272974	363.295402299090	1029.668698149969	399.340293910204	530.003928237554	904.720717905927	371.291237117599	590.704252240430	886.644232009191	258.079464930872	552.086914149770	685.070723540607	209.548448645854	516.053621808727	843.088999331845	141.322448637266	585.433451297478	731.387993714210	160.059154245167	604.562029694538	889.701301528898	32.701111124687	636.356629864097	836.841373765309	38.295073986370	401.255224829572	914.251953007410	36.075723590726	323.630491785464	997.189749887260	96.166244512130	354.523857853312	1126.083404749270	43.507635961894	331.117322647611	1045.832577999983	1098.700401780722	96.063134372380	1216.003923398869	901.308928023558	132.018333553963	1049.514983909530	1084.161909664016	697.579427651939	1259.543597920552	930.912531394899	691.831795624973	
107	14.047000000000	793.370906348782	994.780945037621	407.318801258611	977.541511872138	1429.777628302813	245.816291845823	1066.586962699597	1359.688766354075	414.040085016442	968.074403621762	1425.934727065288	581.892442381254	944.181368742246	1488.268790402818	403.151438054017	1017.621569086919	933.552892126206	539.087827289967	1022.627862135708	959.550714333034	265.123046988257	1089.552991308770	748.219697661900	504.143529362914	1033.631253277394	629.369135384173	569.404142420177	1116.658471269879	581.718082373962	487.399785741928	1121.797986676110	468.468953275149	510.748575702389	1076.053009624487	746.545769367717	309.088549697312	996.927914098671	620.608132240087	252.481171727781	1075.485128095060	551.260046013786	330.172324124856	1076.349086179513	479.023469326963	342.987402619274	1040.924397686095	405.160447385762	336.434525332446	946.037154272486	296.583373716860	282.979892497601	976.033911461228	186.047269683676	363.654511371709	1040.061406968822	401.564403479094	526.179929936819	914.742974714488	374.034184628236	586.956991287583	896.812622304274	260.510225027544	549.041423034043	694.972951254488	211.707297983305	513.455928339975	853.603281501844	143.917162724802	582.384448024501	741.729912419877	162.367365709794	601.882441988550	900.478084506700	33.687883733850	633.268607387506	831.925293711946	38.321887132469	401.233975987927	909.384249368950	36.110305040918	323.642925793629	992.379208224470	96.069750654563	354.676151683030	1121.244163038829	43.210566249105	331.125416589083	1053.682146175971	1099.172870070469	97.056054345440	1236.613877465691	913.999339369148	134.746147904984	1029.079191489298	1078.734096018918	698.020249414635	1225.684571429992	909.204600665193	696.898472342561	
108	14.071500000000	792.781514848026	994.336777563982	405.409888050069	979.394567920548	1429.459261656906	246.087040531925	1066.334271652038	1359.149963384703	415.289660639368	965.879095501155	1425.341870663802	582.152589503040	944.408181303930	1487.835310206458	403.264198579343	1016.221521087742	933.531547584375	539.120891448020	1023.090787625973	959.033749207931	265.185584615890	1092.301127712401	751.373773149469	501.986268524990	1039.900900694305	631.035818164451	567.165523392248	1123.084451659857	585.384262574775	483.924007204789	1130.921047912648	471.755397795236	507.064821618299	1075.862103157310	745.488484078935	309.287518679965	996.543670312945	619.874726861594	252.735848769838	1074.344928130144	550.350670141859	331.130592928631	1074.919602040065	477.954511192148	343.931669230387	1038.751949278091	404.266158022764	337.062916686601	943.171367265047	296.414533412571	283.446354352645	972.066704203844	185.550881119317	363.969315043235	1049.749391698257	403.865117727237	523.263412934960	924.667181871859	375.488386246310	584.350877485053	907.977197860556	261.651163797328	546.887054881337	706.437773986447	209.586562325822	512.489998137656	866.725386225697	145.352569770128	579.901798116179	754.897525426950	161.309085082440	600.453338826427	916.165947911712	35.084162555750	630.194054562182	827.003715133024	38.357288956833	401.219545389381	904.512308201751	36.146266328178	323.658433523835	987.558995191505	95.984215785342	354.800866812207	1116.397603352898	42.923997354909	331.119633998625	1061.267057294734	1100.052865657857	98.268002799992	1256.415045314438	928.205264176175	137.567801748090	1008.429178824935	1074.620953132722	698.090725503008	1189.687633064520	889.386631906362	700.753902032354	
109	14.096000000000	792.364856191891	994.312162078799	403.991843468408	981.409954531632	1429.431940453519	246.609718843006	1066.375488052551	1358.907148166763	416.702364552923	964.142939195000	1425.133850096995	582.600937530454	944.923695874109	1487.703308803534	403.618752302525	1014.987380570501	933.842774943491	539.539760060367	1023.518152626710	958.687067311748	265.637540630039	1094.342425691942	754.385996037532	500.630134861771	1044.836570216377	632.915220989511	565.873298801541	1128.005983332641	588.927550205978	481.603612433289	1138.462239456644	475.384989762554	504.521979413837	1075.324546466681	744.473837296529	309.737435086004	995.589669124787	619.364609996044	253.174822392550	1072.613653783017	549.514855177406	332.080609323226	1072.809491263294	477.033323885990	344.841269359324	1036.043785713922	403.575494683514	337.654760762913	939.854908928486	296.350044252065	283.920006407699	967.915251769436	185.171830233313	364.241549904331	1058.628965227147	406.149309652817	521.458673183802	934.482478147707	375.458613872606	583.061388773137	920.246256053780	261.351103432128	545.793929281814	719.842790478471	203.021348016224	513.144519622801	882.583825220865	145.424972694685	578.208820241735	771.087962729212	156.765314410481	600.342340921947	936.732442974796	36.827147370789	627.466838148856	822.078496511709	38.402355489773	401.210836876374	899.635316619808	36.185012136624	323.677603701695	982.729112093437	95.912917134775	354.897960297839	1111.542778530371	42.651588207180	331.101446312943	1068.700479559301	1101.409502062875	99.651069777323	1275.243124692662	943.824661564667	140.458880386739	987.802342402453	1071.951310961496	697.788547296758	1151.982563075820	871.905127243056	703.248121282597	
110	14.120500000000	792.112795374496	994.705475273422	403.068956693552	983.596296988231	1429.695838363087	247.395249594801	1066.715767028990	1358.956354489859	418.291959483363	962.880247898041	1425.313567998239	583.250923494997	945.731656328812	1487.870212966159	404.227791912158	1013.902468773218	934.467458532434	540.350747879906	1023.951561334076	958.526525737873	266.471704424394	1095.640979557911	757.139633541467	500.171530286551	1048.318395064960	634.903093921340	565.619398013775	1131.354457855344	592.207294869957	480.577727079177	1144.324209683308	479.255147287598	503.278963859792	1074.443706025680	743.528030572071	310.486393396375	994.089169986925	619.086031992820	253.794187159495	1070.295920630646	548.759719971691	333.037150100102	1070.023763149044	476.270684000367	345.725586638922	1032.806994241564	403.089834348390	338.222120130763	936.109375370788	296.388890606031	284.400503535227	963.581722005038	184.910539420972	364.481114541628	1066.646455657987	408.342376556870	520.898688905282	944.215256735827	373.873289682020	583.187654477385	933.678909661840	259.603280027151	545.866395399543	735.508168348866	192.251144490460	515.310887769564	901.143343294641	144.070020735018	577.470603468184	790.350376136728	148.943501773574	601.527735838391	961.770513783168	38.843651626303	625.377281503342	817.152678655658	38.458036093854	401.206028376401	894.752767088478	36.228064108584	323.700984299917	977.890171125394	95.857789812778	354.971090681347	1106.679167790638	42.395784455035	331.073387672678	1076.079814200853	1103.276887789090	101.163854431786	1292.963543780032	960.695992807725	143.409133630998	967.439872335264	1070.791522506512	697.135300383660	1113.121226188234	857.141835869942	704.278436020902	
